# xmcd CD database file
#
# Track frame offsets:
#	150
#	13485
#	83394
#	113890
#	117999
#	145262
#	190708
#	201847
#	241333
#	258357
#
# Disc length: 4338 seconds
#
# Revision: 0
# Processed by: cddbd v1.5.1PL0 Copyright (c) Steve Scherf et al.
# Submitted via: CDex 1.51
#
DISCID=8410f00a
DTITLE=Anotonio Onorato - The Soul Breath
DYEAR=2001
DGENRE=Jazz
TTITLE0=Let's fly over Afrika
TTITLE1=Afrikan trip
TTITLE2=A love supreme (J. Coltrane)
TTITLE3=Playng with water
TTITLE4=We want peace and love
TTITLE5=The soul breath
TTITLE6=Strings and bow
TTITLE7=Desert wind
TTITLE8=Angel of the music
TTITLE9=The mistery of Afrika
EXTD=YEAR: 2001
EXTT0=
EXTT1=
EXTT2=
EXTT3=
EXTT4=
EXTT5=
EXTT6=
EXTT7=
EXTT8=
EXTT9=
PLAYORDER=
